<svg id="ipod-mini-nav-button-icon_Image" data-name="ipod-mini-nav-button-icon Image" xmlns="http://www.w3.org/2000/svg" viewBox="0 0 1250.999 1001">
  <defs>
    <style>
      .cls-1 {
        fill: #fff;
      }
    </style>
  </defs>
  <title>ipod-mini-nav-button-icon</title>
  <g>
    <path class="cls-1" d="M1,1001V1.123q625,0,1250,0,0,499.936,0,999.881H1ZM452,728.463q0,103.718.078,207.436c0.006,3.895.365,8.128,1.893,11.621,5.464,12.5,15.5,17.77,29.038,17.756q146.452-.157,292.9-0.059a29.079,29.079,0,0,0,29.13-29.183c-0.02-4.161,0-8.323,0-12.484q-0.058-202.184-.124-404.368c-0.006-14.872-12.851-27.568-27.94-27.567-98.636.006-197.272,0.255-295.906-.173-13.332-.058-29.557,13.935-29.391,29.589C452.417,590.168,452,659.318,452,728.463Z"/>
    <path d="M452,728.463c0-69.145.417-138.3-.318-207.433-0.167-15.654,16.059-29.646,29.391-29.589,98.634,0.428,197.27.179,295.906,0.173,15.089,0,27.934,12.7,27.94,27.567q0.078,202.184.124,404.368c0,4.161-.019,8.323,0,12.484a29.079,29.079,0,0,1-29.13,29.183q-146.452.01-292.9,0.059c-13.535.015-23.574-5.261-29.038-17.756-1.527-3.493-1.887-7.726-1.893-11.621Q451.917,832.181,452,728.463Zm175.105,10.13v0.12q37.233,0,74.467,0,32.48,0.021,64.961.091c7.56,0.011,9.79-2.578,8.937-10.138a80.4,80.4,0,0,1-.556-8.947q-0.047-93.209,0-186.417a42.982,42.982,0,0,1,.461-5.932c0.925-6.59-1.449-9.4-8.053-9.227-10.306.263-20.61,0.851-30.916,0.862q-109.7.114-219.4,0c-9.969-.01-19.94-0.486-29.905-0.867-6.371-.243-7.137.4-7.135,6.966q0.02,101.2.038,202.41c0,11.088-.018,11.077,11.172,11.076Q559.137,738.588,627.106,738.593Zm94.859,107.079c3.292-52.731-46.641-96.964-95.291-95.605-49.081,1.37-94.626,42.758-93.177,98.7,1.282,49.525,42.61,91.713,95.028,92.4C675.95,941.8,725.388,898.145,721.964,845.672Z"/>
    <path class="cls-1" d="M627.106,738.593q-67.968,0-135.936,0c-11.19,0-11.171.013-11.172-11.076q-0.012-101.2-.038-202.41c0-6.562.765-7.21,7.135-6.966,9.965,0.381,19.936.857,29.905,0.867q109.7,0.109,219.4,0c10.306-.011,20.61-0.6,30.916-0.862,6.6-.168,8.978,2.637,8.053,9.227a42.982,42.982,0,0,0-.461,5.932q-0.035,93.209,0,186.417a80.4,80.4,0,0,0,.556,8.947c0.853,7.561-1.377,10.149-8.937,10.138q-32.48-.046-64.961-0.091-37.233-.024-74.467,0v-0.12Z"/>
    <path class="cls-1" d="M721.964,845.672c3.424,52.473-46.015,96.125-93.441,95.5-52.418-.691-93.745-42.879-95.028-92.4-1.449-55.944,44.1-97.331,93.177-98.7C675.323,748.709,725.257,792.941,721.964,845.672Zm-93.59,44.394c24.634-.616,43.543-18.489,43.667-44.2,0.132-27.281-21.681-45.661-45.936-44.333-23.565,1.291-42.3,19.71-41.946,44.024C584.557,872.606,603.765,889.193,628.374,890.066Z"/>
    <path d="M628.374,890.066c-24.609-.873-43.818-17.46-44.216-44.511-0.358-24.313,18.382-42.733,41.946-44.024,24.255-1.329,46.069,17.052,45.936,44.333C671.917,871.577,653.008,889.45,628.374,890.066Z"/>
  </g>
</svg>
