<svg id="ipod-nav-button-icon_Image" data-name="ipod-nav-button-icon Image" xmlns="http://www.w3.org/2000/svg" viewBox="0 0 1250.829 1001">
  <defs>
    <style>
      .cls-1 {
        fill: #fff;
      }
    </style>
  </defs>
  <title>ipod-nav-button-icon</title>
  <g>
    <path class="cls-1" d="M1.047,1001V1.1H1250.829V1001H1.047ZM406.811,586.835q0,151.739,0,303.479c0,8.665.343,17.356-.2,25.989-0.544,8.577.743,16.706,4.606,24.216a44.069,44.069,0,0,0,22.33,21.057c9.2,4,18.473,3.621,27.94,3.622q172.735,0.029,345.47.137a41.718,41.718,0,0,0,22.652-6.788c13.986-8.964,21.137-22.481,21.151-39.111q0.163-194.984.056-389.968-0.016-127.74-.094-255.48c0-7.331.147-14.667-.05-21.993-0.3-11-7.557-24.151-20.018-27.566-9.767-2.676-19.373-2.7-29.162-2.7q-174.487-.026-348.975,0c-5.658,0-11.454-.539-16.95.464-18.677,3.408-28.485,8.789-28.828,30.172-0.075,4.664.077,9.331,0.077,14Q406.815,426.6,406.811,586.835Z"/>
    <path d="M406.811,586.835q0-160.238,0-320.475c0-4.666-.152-9.333-0.077-14,0.343-21.383,10.152-26.764,28.828-30.172,5.5-1,11.292-.463,16.95-0.464q174.487-.029,348.975,0c9.789,0,19.395.027,29.162,2.7,12.461,3.415,19.722,16.565,20.018,27.566,0.2,7.326.048,14.662,0.05,21.993q0.049,127.74.094,255.48,0.024,194.984-.056,389.968c-0.014,16.629-7.165,30.146-21.151,39.111a41.718,41.718,0,0,1-22.652,6.788q-172.735-.156-345.47-0.137c-9.467,0-18.745.379-27.94-3.622a44.069,44.069,0,0,1-22.33-21.057c-3.863-7.51-5.15-15.639-4.606-24.216,0.547-8.633.2-17.323,0.2-25.989Q406.816,738.575,406.811,586.835Zm221.7-39.5v0.076q14.492,0,28.984,0,78.694,0.089,157.388.2c5.692,0.01,7.032-1.284,6.93-7.046-0.148-8.325-.353-16.651-0.356-24.976q-0.04-120.718,0-241.437c0-7.993.132-15.987,0.32-23.978,0.107-4.57-2.08-6.371-6.47-5.977-3.642.327-7.291,0.835-10.937,0.836q-176.7.066-353.408,0.036c-1.333,0-2.668.043-4-.015-12.4-.544-12.241-0.549-12.235,11.514q0.067,138.964-.006,277.927c-0.008,12.819-.194,12.832,12.411,12.833Q537.817,547.344,628.507,547.338Zm-0.457,351.574A141.5,141.5,0,0,0,769.433,754.98c-1.152-77.069-62.761-140.208-142.1-139.682-75.781.5-139.434,61.023-139.708,141.448C487.357,836.256,550.04,898.132,628.049,898.913Z"/>
    <path class="cls-1" d="M628.507,547.338q-90.69,0-181.38,0c-12.605,0-12.419-.015-12.411-12.833q0.084-138.964.006-277.927c-0.006-12.063-.162-12.058,12.235-11.514,1.331,0.058,2.666.015,4,.015q176.7,0,353.408-.036c3.646,0,7.295-.509,10.937-0.836,4.39-.395,6.578,1.407,6.47,5.977-0.188,7.991-.318,15.985-0.32,23.978q-0.034,120.718,0,241.437c0,8.326.208,16.651,0.356,24.976,0.1,5.762-1.237,7.056-6.93,7.046q-78.694-.132-157.388-0.2-14.492-.016-28.984,0v-0.076Z"/>
    <path class="cls-1" d="M628.049,898.913c-78.01-.781-140.692-62.657-140.422-142.166C487.9,676.321,551.554,615.8,627.335,615.3c79.337-.527,140.946,62.613,142.1,139.682A141.5,141.5,0,0,1,628.049,898.913Zm0.614-197.3c-26.6-1.347-51.961,21.859-50.685,52.4,1.237,29.6,21,49.307,50.572,49.515,30.9,0.218,50.944-23.641,51.052-51.447C679.709,724.935,657.133,700.8,628.664,701.609Z"/>
    <path d="M628.664,701.609c28.469-.808,51.046,23.325,50.94,50.463-0.108,27.807-20.149,51.665-51.052,51.447-29.575-.208-49.336-19.918-50.572-49.515C576.7,723.468,602.067,700.263,628.664,701.609Z"/>
  </g>
</svg>
